<?xml version="1.0" encoding="utf-8"?>
<!-- Generator: Adobe Illustrator 23.0.2, SVG Export Plug-In . SVG Version: 6.00 Build 0)  -->
<svg version="1.1" id="Layer_1" xmlns="http://www.w3.org/2000/svg" xmlns:xlink="http://www.w3.org/1999/xlink" x="0px" y="0px"
	 viewBox="0 0 1280 1024" style="enable-background:new 0 0 1280 1024;" xml:space="preserve">
<style type="text/css">
	.st0{fill:#141A16;}
	.st1{fill:url(#SVGID_1_);}
	.st2{fill:#FFFFFF;}
</style>
<path class="st0" d="M1060.61,241.94H137.17c-28.04,0-50.78,22.73-50.78,50.78v426.43c0,28.05,22.74,50.79,50.78,50.79h923.44
	c28.04,0,50.78-22.74,50.78-50.79V292.72C1111.39,264.67,1088.65,241.94,1060.61,241.94z M1042.88,328.25
	c-13.64,0-24.7-11.06-24.7-24.7c0-13.65,11.06-24.7,24.7-24.7s24.7,11.05,24.7,24.7C1067.58,317.19,1056.52,328.25,1042.88,328.25z"
	/>
<g>
	<linearGradient id="SVGID_1_" gradientUnits="userSpaceOnUse" x1="1010.38" y1="303.55" x2="1075.38" y2="303.55">
		<stop  offset="0" style="stop-color:#FFFFFF"/>
		<stop  offset="0.0848" style="stop-color:#F6F6F6"/>
		<stop  offset="0.2245" style="stop-color:#DDDDDD"/>
		<stop  offset="0.4017" style="stop-color:#B4B4B4"/>
		<stop  offset="0.6094" style="stop-color:#7C7C7C"/>
		<stop  offset="0.84" style="stop-color:#353535"/>
		<stop  offset="1" style="stop-color:#000000"/>
	</linearGradient>
	<path class="st1" d="M1042.88,271.05c-17.95,0-32.5,14.55-32.5,32.5c0,17.94,14.55,32.5,32.5,32.5s32.5-14.56,32.5-32.5
		C1075.38,285.6,1060.83,271.05,1042.88,271.05z M1042.88,328.25c-13.64,0-24.7-11.06-24.7-24.7c0-13.65,11.06-24.7,24.7-24.7
		s24.7,11.05,24.7,24.7C1067.58,317.19,1056.52,328.25,1042.88,328.25z"/>
</g>
<g>
	<path class="st2" d="M269.09,620.36c11.78-0.57,20.61-4.09,26.51-10.56c5.89-6.46,8.84-17.02,8.84-31.68V348.83h33.19v227.14
		c0,48.85-21.41,73.85-64.22,74.99h-10.77c-4.31,0-7.76-0.15-10.34-0.43v-30.6C256.01,620.22,261.61,620.36,269.09,620.36z"/>
	<path class="st2" d="M486.95,366.07c11.35,13.51,17.02,32.04,17.02,55.6v27.15h-31.89v-28.88c0-29.02-11.79-43.53-35.34-43.53
		c-11.79,0-20.62,3.81-26.51,11.42c-5.89,7.62-8.84,18.32-8.84,32.11v159.47c0,13.79,2.94,24.5,8.84,32.11
		c5.89,7.62,14.72,11.42,26.51,11.42c23.56,0,35.34-14.51,35.34-43.53V540.2h31.89v37.5c0,23.56-5.68,42.1-17.02,55.6
		c-11.35,13.51-28.38,20.26-51.07,20.26c-22.41,0-39.29-6.75-50.64-20.26c-11.35-13.5-17.02-32.04-17.02-55.6V421.67
		c0-23.56,5.67-42.09,17.02-55.6c11.35-13.5,28.23-20.26,50.64-20.26C458.57,345.82,475.6,352.57,486.95,366.07z"/>
	<path class="st2" d="M651.08,451.87c8.02,9.25,12.04,22.3,12.04,39.17v107.6c0,16.66-4.02,29.62-12.04,38.86
		c-8.03,9.25-20.17,13.87-36.42,13.87h-49.99V438h49.99C630.91,438,643.05,442.62,651.08,451.87z M639.65,599.55V489.82
		c0-20.12-8.53-30.18-25.6-30.18h-25.6v170.08h25.91C631.21,629.73,639.65,619.67,639.65,599.55z"/>
	<path class="st2" d="M761.27,553.83h-52.12v75.9h64.01v21.64h-87.79V438h87.79v21.64h-64.01v72.85h52.12V553.83z"/>
	<path class="st2" d="M847.83,623.63L882.27,438h21.95l-39.93,213.37h-35.05L789,438h24.08L847.83,623.63z"/>
</g>
</svg>
